<svg width="18.000000" height="20.000000" viewBox="0 0 18 20" fill="none" xmlns="http://www.w3.org/2000/svg" xmlns:xlink="http://www.w3.org/1999/xlink">
	<mask fill="white">
		<path d="M4 1C4 0.447715 4.44775 0 5 0C5.55225 0 6 0.447715 6 1L6 2L12 2L12 1C12 0.447715 12.4478 0 13 0C13.5522 0 14 0.447715 14 1L14 2C16.209 2 18 3.79086 18 6L18 16C18 18.2091 16.209 20 14 20L4 20C1.79102 20 0 18.2091 0 16L0 6C0 3.79086 1.79102 2 4 2L4 1ZM12 4C12 4.55228 12.4478 5 13 5C13.5522 5 14 4.55228 14 4L14.1494 4.00549C15.1841 4.08183 16 4.94564 16 6L16 7L2 7L2 6L2.00537 5.85074C2.08203 4.81588 2.9458 4 4 4C4 4.55228 4.44775 5 5 5C5.55225 5 6 4.55228 6 4L12 4Z" clip-rule="evenodd" fill="" fill-opacity="1.000000" fill-rule="evenodd"/>
	</mask>
	<path d="M4 1C4 0.447715 4.44775 0 5 0C5.55225 0 6 0.447715 6 1L6 2L12 2L12 1C12 0.447715 12.4478 0 13 0C13.5522 0 14 0.447715 14 1L14 2C16.209 2 18 3.79086 18 6L18 16C18 18.2091 16.209 20 14 20L4 20C1.79102 20 0 18.2091 0 16L0 6C0 3.79086 1.79102 2 4 2L4 1ZM12 4C12 4.55228 12.4478 5 13 5C13.5522 5 14 4.55228 14 4L14.1494 4.00549C15.1841 4.08183 16 4.94564 16 6L16 7L2 7L2 6L2.00537 5.85074C2.08203 4.81588 2.9458 4 4 4C4 4.55228 4.44775 5 5 5C5.55225 5 6 4.55228 6 4L12 4Z" clip-rule="evenodd" fill="#877D92" fill-opacity="1.000000" fill-rule="evenodd" mask="url(#mask_4_1758)"/>
	<path fill="#3F8CFF" fill-opacity="0.000000" fill-rule="nonzero"/>
</svg>