<svg width="22" height="20" viewBox="0 0 22 20" fill="none" xmlns="http://www.w3.org/2000/svg">
<path fill-rule="evenodd" clip-rule="evenodd" d="M6 5C6 2.23858 8.23858 0 11 0C13.7614 0 16 2.23858 16 5C16 7.76142 13.7614 10 11 10C8.23858 10 6 7.76142 6 5ZM14 5C14 3.34315 12.6569 2 11 2C9.34315 2 8 3.34315 8 5C8 6.65685 9.34315 8 11 8C12.6569 8 14 6.65685 14 5ZM12 15C12 12.2386 14.2386 10 17 10C19.7614 10 22 12.2386 22 15C22 17.7614 19.7614 20 17 20C14.2386 20 12 17.7614 12 15ZM20 15C20 13.3431 18.6569 12 17 12C15.3431 12 14 13.3431 14 15C14 16.6569 15.3431 18 17 18C18.6569 18 20 16.6569 20 15ZM5 10C2.23858 10 0 12.2386 0 15C0 17.7614 2.23858 20 5 20C7.76142 20 10 17.7614 10 15C10 12.2386 7.76142 10 5 10ZM5 12C6.65685 12 8 13.3431 8 15C8 16.6569 6.65685 18 5 18C3.34315 18 2 16.6569 2 15C2 13.3431 3.34315 12 5 12Z" fill="current"/>
</svg>
